<?xml version="1.0" encoding="utf-8"?>
<!-- Generator: Adobe Illustrator 19.0.0, SVG Export Plug-In . SVG Version: 6.00 Build 0)  -->
<svg version="1.1" id="Layer_1" xmlns="http://www.w3.org/2000/svg" xmlns:xlink="http://www.w3.org/1999/xlink" x="0px" y="0px"
	 viewBox="-482 484 54.9 54.8" style="enable-background:new -482 484 54.9 54.8;" xml:space="preserve">
<path style="fill:#F0F0F0;" d="M-442,503.5c-1,8.5-10-10.5-10-10.5h7h18.5C-434.5,493-441,495-442,503.5z"/>
<path style="fill:#F0F0F0;" d="M-461.2,524c8.7-1-10.8-10-10.8-10v7v18.5C-472,531.5-470,525-461.2,524z"/>
<path style="fill:#F0F0F0;" d="M-460.5,490.8l-13.9,13.2c0,0,1.4,20,12.4,20c11,0,20-9,20-20C-442,493-460.5,490.8-460.5,490.8z"/>
<path style="fill:#6200EE;" d="M-464.7,510.7l12-12l-1.9-1.9l-10.1,10.1l-4.8-4.8l-1.9,1.9L-464.7,510.7z M-471.4,494.6
	c2.6-2.6,5.8-3.9,9.4-3.9s6.8,1.3,9.4,3.9c2.6,2.6,3.9,5.7,3.9,9.4s-1.3,6.8-3.9,9.4c-2.6,2.6-5.7,3.9-9.4,3.9s-6.8-1.3-9.4-3.9
	c-2.6-2.6-3.9-5.8-3.9-9.4S-474,497.2-471.4,494.6z"/>
<ellipse style="fill:none;" cx="-462" cy="503.9" rx="20.2" ry="19.9"/>
</svg>
