<!--<svg width="40" viewBox="0 0 46 47" fill="none" xmlns="http://www.w3.org/2000/svg">-->
    <!--<path d="M10 10.5C9 19 0 0 0 0H7H25.5C17.5 0 11 2 10 10.5Z" transform="translate(20)" fill="#f0f0f0"/>-->
    <!--<path d="M9.99816 10.7577C8.99834 19.4662 0 0 0 0H6.99871H25.4953C17.4968 0 10.998 2.04908 9.99816 10.7577Z" transform="translate(0 21) scale(-1 1) rotate(90)" fill="#f0f0f0"/>-->
<!--</svg>-->
<svg width="58" height="57" viewBox="0 0 58 57" fill="none" xmlns="http://www.w3.org/2000/svg">
    <path d="M10 10.5C9 19 0 0 0 0H7H25.5C17.5 0 11 2 10 10.5Z" transform="translate(30 9)" fill="#F0F0F0"/>
    <path d="M9.99816 10.7577C8.99834 19.4662 0 0 0 0H6.99871H25.4953C17.4968 0 10.998 2.04908 9.99816 10.7577Z" transform="translate(10 30) scale(-1 1) rotate(90)" fill="#F0F0F0"/>
    <circle cx="20" cy="20" r="18" fill="#F0F0F0" stroke="#F0F0F0" stroke-width="4"/>
    <path d="M17.3125 26.6875L29.3125 14.6875L27.4375 12.75L17.3125 22.875L12.5625 18.125L10.6875 20L17.3125 26.6875ZM10.5625 10.625C13.1875 8 16.3333 6.6875 20 6.6875C23.6667 6.6875 26.7917 8 29.375 10.625C32 13.2083 33.3125 16.3333 33.3125 20C33.3125 23.6667 32 26.8125 29.375 29.4375C26.7917 32.0208 23.6667 33.3125 20 33.3125C16.3333 33.3125 13.1875 32.0208 10.5625 29.4375C7.97917 26.8125 6.6875 23.6667 6.6875 20C6.6875 16.3333 7.97917 13.2083 10.5625 10.625Z" fill="#6200EE"/>
</svg>
